<mxfile host="app.diagrams.net" modified="2020-09-30T07:22:36.464Z" agent="5.0 (Windows NT 10.0; Win64; x64) AppleWebKit/537.36 (KHTML, like Gecko) Chrome/85.0.4183.121 Safari/537.36" etag="qN5neXU5ngMT1hTASUcd" version="13.7.6" type="github">
  <diagram id="C5RBs43oDa-KdzZeNtuy" name="Page-1">
    <mxGraphModel dx="2494" dy="1205" grid="1" gridSize="10" guides="1" tooltips="1" connect="1" arrows="1" fold="1" page="1" pageScale="1" pageWidth="1169" pageHeight="1654" math="0" shadow="0">
      <root>
        <mxCell id="WIyWlLk6GJQsqaUBKTNV-0" />
        <mxCell id="WIyWlLk6GJQsqaUBKTNV-1" parent="WIyWlLk6GJQsqaUBKTNV-0" />
        <mxCell id="Yb_oia3PvfsGNDMnd8of-0" value="Covid 19 Tracker" style="text;html=1;strokeColor=none;fillColor=none;align=center;verticalAlign=middle;whiteSpace=wrap;rounded=0;strokeWidth=6;fontSize=32;fontStyle=1" vertex="1" parent="WIyWlLk6GJQsqaUBKTNV-1">
          <mxGeometry y="30" width="330" height="60" as="geometry" />
        </mxCell>
        <mxCell id="Yb_oia3PvfsGNDMnd8of-2" value="&lt;font style=&quot;font-size: 25px&quot;&gt;Worldwide&lt;/font&gt;" style="rounded=0;whiteSpace=wrap;html=1;strokeWidth=1;fontSize=32;fontColor=#454545;" vertex="1" parent="WIyWlLk6GJQsqaUBKTNV-1">
          <mxGeometry x="350" y="35" width="196" height="50" as="geometry" />
        </mxCell>
        <mxCell id="Yb_oia3PvfsGNDMnd8of-3" value="" style="rounded=1;whiteSpace=wrap;html=1;strokeWidth=1;fontSize=32;fontColor=#454545;" vertex="1" parent="WIyWlLk6GJQsqaUBKTNV-1">
          <mxGeometry x="30" y="150" width="230" height="140" as="geometry" />
        </mxCell>
        <mxCell id="Yb_oia3PvfsGNDMnd8of-4" value="&lt;span style=&quot;font-size: 16px&quot;&gt;Coronavirus cases&lt;/span&gt;" style="text;html=1;strokeColor=none;fillColor=none;align=center;verticalAlign=middle;whiteSpace=wrap;rounded=0;fontSize=32;fontColor=#454545;" vertex="1" parent="WIyWlLk6GJQsqaUBKTNV-1">
          <mxGeometry x="40" y="160" width="150" height="30" as="geometry" />
        </mxCell>
        <mxCell id="Yb_oia3PvfsGNDMnd8of-5" value="&lt;span style=&quot;font-size: 16px&quot;&gt;+ 2000&lt;/span&gt;" style="text;html=1;strokeColor=none;fillColor=none;align=left;verticalAlign=middle;whiteSpace=wrap;rounded=0;fontSize=32;fontColor=#454545;" vertex="1" parent="WIyWlLk6GJQsqaUBKTNV-1">
          <mxGeometry x="40" y="205" width="150" height="30" as="geometry" />
        </mxCell>
        <mxCell id="Yb_oia3PvfsGNDMnd8of-6" value="&lt;span style=&quot;font-size: 16px&quot;&gt;+1.2 M Total&lt;/span&gt;" style="text;html=1;strokeColor=none;fillColor=none;align=left;verticalAlign=middle;whiteSpace=wrap;rounded=0;fontSize=32;fontColor=#454545;" vertex="1" parent="WIyWlLk6GJQsqaUBKTNV-1">
          <mxGeometry x="40" y="240" width="150" height="30" as="geometry" />
        </mxCell>
        <mxCell id="Yb_oia3PvfsGNDMnd8of-14" value="" style="rounded=1;whiteSpace=wrap;html=1;strokeWidth=1;fontSize=32;fontColor=#454545;" vertex="1" parent="WIyWlLk6GJQsqaUBKTNV-1">
          <mxGeometry x="280" y="150" width="230" height="140" as="geometry" />
        </mxCell>
        <mxCell id="Yb_oia3PvfsGNDMnd8of-15" value="&lt;span style=&quot;font-size: 16px&quot;&gt;Recovered&lt;/span&gt;" style="text;html=1;strokeColor=none;fillColor=none;align=center;verticalAlign=middle;whiteSpace=wrap;rounded=0;fontSize=32;fontColor=#454545;" vertex="1" parent="WIyWlLk6GJQsqaUBKTNV-1">
          <mxGeometry x="290" y="160" width="150" height="30" as="geometry" />
        </mxCell>
        <mxCell id="Yb_oia3PvfsGNDMnd8of-16" value="&lt;span style=&quot;font-size: 16px&quot;&gt;+ 2000&lt;/span&gt;" style="text;html=1;strokeColor=none;fillColor=none;align=left;verticalAlign=middle;whiteSpace=wrap;rounded=0;fontSize=32;fontColor=#454545;" vertex="1" parent="WIyWlLk6GJQsqaUBKTNV-1">
          <mxGeometry x="290" y="205" width="150" height="30" as="geometry" />
        </mxCell>
        <mxCell id="Yb_oia3PvfsGNDMnd8of-17" value="&lt;span style=&quot;font-size: 16px&quot;&gt;+1.2 M Total&lt;/span&gt;" style="text;html=1;strokeColor=none;fillColor=none;align=left;verticalAlign=middle;whiteSpace=wrap;rounded=0;fontSize=32;fontColor=#454545;" vertex="1" parent="WIyWlLk6GJQsqaUBKTNV-1">
          <mxGeometry x="290" y="240" width="150" height="30" as="geometry" />
        </mxCell>
        <mxCell id="Yb_oia3PvfsGNDMnd8of-18" value="" style="rounded=1;whiteSpace=wrap;html=1;strokeWidth=1;fontSize=32;fontColor=#454545;" vertex="1" parent="WIyWlLk6GJQsqaUBKTNV-1">
          <mxGeometry x="530" y="150" width="230" height="140" as="geometry" />
        </mxCell>
        <mxCell id="Yb_oia3PvfsGNDMnd8of-19" value="&lt;span style=&quot;font-size: 16px&quot;&gt;Deaths&lt;/span&gt;" style="text;html=1;strokeColor=none;fillColor=none;align=center;verticalAlign=middle;whiteSpace=wrap;rounded=0;fontSize=32;fontColor=#454545;" vertex="1" parent="WIyWlLk6GJQsqaUBKTNV-1">
          <mxGeometry x="540" y="160" width="150" height="30" as="geometry" />
        </mxCell>
        <mxCell id="Yb_oia3PvfsGNDMnd8of-20" value="&lt;span style=&quot;font-size: 16px&quot;&gt;+ 2000&lt;/span&gt;" style="text;html=1;strokeColor=none;fillColor=none;align=left;verticalAlign=middle;whiteSpace=wrap;rounded=0;fontSize=32;fontColor=#454545;" vertex="1" parent="WIyWlLk6GJQsqaUBKTNV-1">
          <mxGeometry x="540" y="205" width="150" height="30" as="geometry" />
        </mxCell>
        <mxCell id="Yb_oia3PvfsGNDMnd8of-21" value="&lt;span style=&quot;font-size: 16px&quot;&gt;+1.2 M Total&lt;/span&gt;" style="text;html=1;strokeColor=none;fillColor=none;align=left;verticalAlign=middle;whiteSpace=wrap;rounded=0;fontSize=32;fontColor=#454545;" vertex="1" parent="WIyWlLk6GJQsqaUBKTNV-1">
          <mxGeometry x="540" y="240" width="150" height="30" as="geometry" />
        </mxCell>
        <mxCell id="Yb_oia3PvfsGNDMnd8of-22" value="" style="rounded=1;whiteSpace=wrap;html=1;strokeWidth=1;fontSize=32;fontColor=#454545;arcSize=3;" vertex="1" parent="WIyWlLk6GJQsqaUBKTNV-1">
          <mxGeometry x="30" y="355" width="730" height="690" as="geometry" />
        </mxCell>
        <mxCell id="Yb_oia3PvfsGNDMnd8of-23" value="" style="shape=image;html=1;verticalAlign=top;verticalLabelPosition=bottom;labelBackgroundColor=#ffffff;imageAspect=0;aspect=fixed;image=https://cdn3.iconfinder.com/data/icons/logos-brands-3/24/logo_brand_brands_logos_maps_google-128.png;strokeWidth=1;fontSize=32;fontColor=#454545;" vertex="1" parent="WIyWlLk6GJQsqaUBKTNV-1">
          <mxGeometry x="280" y="570" width="230" height="230" as="geometry" />
        </mxCell>
        <mxCell id="Yb_oia3PvfsGNDMnd8of-24" value="" style="rounded=1;whiteSpace=wrap;html=1;strokeWidth=1;fontSize=32;fontColor=#454545;arcSize=4;" vertex="1" parent="WIyWlLk6GJQsqaUBKTNV-1">
          <mxGeometry x="815" y="35" width="320" height="1010" as="geometry" />
        </mxCell>
        <mxCell id="Yb_oia3PvfsGNDMnd8of-25" value="Cases By Country" style="text;html=1;strokeColor=none;fillColor=none;align=center;verticalAlign=middle;whiteSpace=wrap;rounded=0;fontSize=16;fontColor=#454545;fontStyle=1" vertex="1" parent="WIyWlLk6GJQsqaUBKTNV-1">
          <mxGeometry x="840" y="50" width="170" height="20" as="geometry" />
        </mxCell>
        <mxCell id="Yb_oia3PvfsGNDMnd8of-26" value="Worldwide New Cases" style="text;html=1;strokeColor=none;fillColor=none;align=center;verticalAlign=middle;whiteSpace=wrap;rounded=0;fontSize=16;fontColor=#454545;fontStyle=1" vertex="1" parent="WIyWlLk6GJQsqaUBKTNV-1">
          <mxGeometry x="830" y="640" width="210" height="20" as="geometry" />
        </mxCell>
        <mxCell id="Yb_oia3PvfsGNDMnd8of-27" value="" style="shape=table;html=1;whiteSpace=wrap;startSize=0;container=1;collapsible=0;childLayout=tableLayout;columnLines=0;rowLines=0;strokeWidth=1;fontSize=16;fontColor=#454545;" vertex="1" parent="WIyWlLk6GJQsqaUBKTNV-1">
          <mxGeometry x="840" y="85" width="270" height="375" as="geometry" />
        </mxCell>
        <mxCell id="Yb_oia3PvfsGNDMnd8of-28" value="" style="shape=partialRectangle;html=1;whiteSpace=wrap;collapsible=0;dropTarget=0;pointerEvents=0;fillColor=none;top=0;left=0;bottom=0;right=0;points=[[0,0.5],[1,0.5]];portConstraint=eastwest;" vertex="1" parent="Yb_oia3PvfsGNDMnd8of-27">
          <mxGeometry width="270" height="75" as="geometry" />
        </mxCell>
        <mxCell id="Yb_oia3PvfsGNDMnd8of-29" value="Value 1" style="shape=partialRectangle;html=1;whiteSpace=wrap;connectable=0;fillColor=none;top=0;left=0;bottom=0;right=0;overflow=hidden;" vertex="1" parent="Yb_oia3PvfsGNDMnd8of-28">
          <mxGeometry width="90" height="75" as="geometry" />
        </mxCell>
        <mxCell id="Yb_oia3PvfsGNDMnd8of-30" value="Value 2" style="shape=partialRectangle;html=1;whiteSpace=wrap;connectable=0;fillColor=none;top=0;left=0;bottom=0;right=0;overflow=hidden;" vertex="1" parent="Yb_oia3PvfsGNDMnd8of-28">
          <mxGeometry x="90" width="90" height="75" as="geometry" />
        </mxCell>
        <mxCell id="Yb_oia3PvfsGNDMnd8of-31" value="Value 3" style="shape=partialRectangle;html=1;whiteSpace=wrap;connectable=0;fillColor=none;top=0;left=0;bottom=0;right=0;overflow=hidden;" vertex="1" parent="Yb_oia3PvfsGNDMnd8of-28">
          <mxGeometry x="180" width="90" height="75" as="geometry" />
        </mxCell>
        <mxCell id="Yb_oia3PvfsGNDMnd8of-32" value="" style="shape=partialRectangle;html=1;whiteSpace=wrap;collapsible=0;dropTarget=0;pointerEvents=0;fillColor=none;top=0;left=0;bottom=0;right=0;points=[[0,0.5],[1,0.5]];portConstraint=eastwest;" vertex="1" parent="Yb_oia3PvfsGNDMnd8of-27">
          <mxGeometry y="75" width="270" height="150" as="geometry" />
        </mxCell>
        <mxCell id="Yb_oia3PvfsGNDMnd8of-33" value="Value 4" style="shape=partialRectangle;html=1;whiteSpace=wrap;connectable=0;fillColor=none;top=0;left=0;bottom=0;right=0;overflow=hidden;" vertex="1" parent="Yb_oia3PvfsGNDMnd8of-32">
          <mxGeometry width="90" height="150" as="geometry" />
        </mxCell>
        <mxCell id="Yb_oia3PvfsGNDMnd8of-34" value="Value 5" style="shape=partialRectangle;html=1;whiteSpace=wrap;connectable=0;fillColor=none;top=0;left=0;bottom=0;right=0;overflow=hidden;" vertex="1" parent="Yb_oia3PvfsGNDMnd8of-32">
          <mxGeometry x="90" width="90" height="150" as="geometry" />
        </mxCell>
        <mxCell id="Yb_oia3PvfsGNDMnd8of-35" value="Value 6" style="shape=partialRectangle;html=1;whiteSpace=wrap;connectable=0;fillColor=none;top=0;left=0;bottom=0;right=0;overflow=hidden;" vertex="1" parent="Yb_oia3PvfsGNDMnd8of-32">
          <mxGeometry x="180" width="90" height="150" as="geometry" />
        </mxCell>
        <mxCell id="Yb_oia3PvfsGNDMnd8of-36" value="" style="shape=partialRectangle;html=1;whiteSpace=wrap;collapsible=0;dropTarget=0;pointerEvents=0;fillColor=none;top=0;left=0;bottom=0;right=0;points=[[0,0.5],[1,0.5]];portConstraint=eastwest;" vertex="1" parent="Yb_oia3PvfsGNDMnd8of-27">
          <mxGeometry y="225" width="270" height="150" as="geometry" />
        </mxCell>
        <mxCell id="Yb_oia3PvfsGNDMnd8of-37" value="Value 7" style="shape=partialRectangle;html=1;whiteSpace=wrap;connectable=0;fillColor=none;top=0;left=0;bottom=0;right=0;overflow=hidden;" vertex="1" parent="Yb_oia3PvfsGNDMnd8of-36">
          <mxGeometry width="90" height="150" as="geometry" />
        </mxCell>
        <mxCell id="Yb_oia3PvfsGNDMnd8of-38" value="Value 8" style="shape=partialRectangle;html=1;whiteSpace=wrap;connectable=0;fillColor=none;top=0;left=0;bottom=0;right=0;overflow=hidden;" vertex="1" parent="Yb_oia3PvfsGNDMnd8of-36">
          <mxGeometry x="90" width="90" height="150" as="geometry" />
        </mxCell>
        <mxCell id="Yb_oia3PvfsGNDMnd8of-39" value="Value 9" style="shape=partialRectangle;html=1;whiteSpace=wrap;connectable=0;fillColor=none;top=0;left=0;bottom=0;right=0;overflow=hidden;" vertex="1" parent="Yb_oia3PvfsGNDMnd8of-36">
          <mxGeometry x="180" width="90" height="150" as="geometry" />
        </mxCell>
        <mxCell id="Yb_oia3PvfsGNDMnd8of-73" value="" style="fillColor=#10739E;strokeColor=none;fontSize=20;fontColor=#454545;" vertex="1" parent="WIyWlLk6GJQsqaUBKTNV-1">
          <mxGeometry x="890" y="830" width="36" height="100" as="geometry" />
        </mxCell>
        <mxCell id="Yb_oia3PvfsGNDMnd8of-74" value="" style="shape=mxgraph.arrows2.arrow;dy=0.4;dx=16;notch=0;direction=north;fillColor=#1699D3;strokeColor=none;" vertex="1" parent="Yb_oia3PvfsGNDMnd8of-73">
          <mxGeometry x="3.6" y="30" width="28.8" height="70" as="geometry" />
        </mxCell>
        <mxCell id="Yb_oia3PvfsGNDMnd8of-75" value="Label" style="text;html=1;align=center;verticalAlign=middle;whiteSpace=wrap;fontColor=#FFFFFF;fontSize=10;" vertex="1" parent="Yb_oia3PvfsGNDMnd8of-73">
          <mxGeometry width="36" height="20" as="geometry" />
        </mxCell>
        <mxCell id="Yb_oia3PvfsGNDMnd8of-76" value="" style="fillColor=#F2931E;strokeColor=none;fontSize=20;fontColor=#454545;" vertex="1" parent="WIyWlLk6GJQsqaUBKTNV-1">
          <mxGeometry x="925" y="810" width="36" height="120" as="geometry" />
        </mxCell>
        <mxCell id="Yb_oia3PvfsGNDMnd8of-77" value="" style="shape=mxgraph.arrows2.arrow;dy=0.4;dx=16;notch=0;direction=south;fillColor=#F5AB50;strokeColor=none;" vertex="1" parent="Yb_oia3PvfsGNDMnd8of-76">
          <mxGeometry x="3.6" width="28.8" height="80" as="geometry" />
        </mxCell>
        <mxCell id="Yb_oia3PvfsGNDMnd8of-78" value="Label" style="text;html=1;align=center;verticalAlign=middle;whiteSpace=wrap;fontColor=#FFFFFF;fontSize=10;" vertex="1" parent="Yb_oia3PvfsGNDMnd8of-76">
          <mxGeometry width="36" height="20" as="geometry" />
        </mxCell>
        <mxCell id="Yb_oia3PvfsGNDMnd8of-79" value="" style="fillColor=#AE4132;strokeColor=none;fontSize=20;fontColor=#454545;" vertex="1" parent="WIyWlLk6GJQsqaUBKTNV-1">
          <mxGeometry x="960" y="800" width="36" height="130" as="geometry" />
        </mxCell>
        <mxCell id="Yb_oia3PvfsGNDMnd8of-80" value="" style="shape=mxgraph.arrows2.arrow;dy=0.4;dx=16;notch=0;direction=north;fillColor=#E85642;strokeColor=none;" vertex="1" parent="Yb_oia3PvfsGNDMnd8of-79">
          <mxGeometry x="3.6" y="80" width="28.8" height="50" as="geometry" />
        </mxCell>
        <mxCell id="Yb_oia3PvfsGNDMnd8of-81" value="Label" style="text;html=1;align=center;verticalAlign=middle;whiteSpace=wrap;fontColor=#FFFFFF;fontSize=10;" vertex="1" parent="Yb_oia3PvfsGNDMnd8of-79">
          <mxGeometry width="36" height="20" as="geometry" />
        </mxCell>
        <mxCell id="Yb_oia3PvfsGNDMnd8of-82" value="" style="fillColor=#12AAB5;strokeColor=none;fontSize=20;fontColor=#454545;" vertex="1" parent="WIyWlLk6GJQsqaUBKTNV-1">
          <mxGeometry x="995" y="850" width="36" height="80" as="geometry" />
        </mxCell>
        <mxCell id="Yb_oia3PvfsGNDMnd8of-83" value="" style="shape=mxgraph.arrows2.arrow;dy=0.4;dx=16;notch=0;direction=south;fillColor=#64BBE2;strokeColor=none;" vertex="1" parent="Yb_oia3PvfsGNDMnd8of-82">
          <mxGeometry x="3.6" width="28.8" height="30" as="geometry" />
        </mxCell>
        <mxCell id="Yb_oia3PvfsGNDMnd8of-84" value="Label" style="text;html=1;align=center;verticalAlign=middle;whiteSpace=wrap;fontColor=#FFFFFF;fontSize=10;" vertex="1" parent="Yb_oia3PvfsGNDMnd8of-82">
          <mxGeometry width="36" height="20" as="geometry" />
        </mxCell>
        <mxCell id="Yb_oia3PvfsGNDMnd8of-85" value="" style="fillColor=#23445D;strokeColor=none;fontSize=20;fontColor=#454545;" vertex="1" parent="WIyWlLk6GJQsqaUBKTNV-1">
          <mxGeometry x="1030" y="860" width="36" height="70" as="geometry" />
        </mxCell>
        <mxCell id="Yb_oia3PvfsGNDMnd8of-86" value="" style="shape=mxgraph.arrows2.arrow;dy=0.4;dx=16;notch=0;direction=north;fillColor=#2F5B7C;strokeColor=none;" vertex="1" parent="Yb_oia3PvfsGNDMnd8of-85">
          <mxGeometry x="3.6" y="10" width="28.8" height="60" as="geometry" />
        </mxCell>
        <mxCell id="Yb_oia3PvfsGNDMnd8of-87" value="Label" style="text;html=1;align=center;verticalAlign=middle;whiteSpace=wrap;fontColor=#FFFFFF;fontSize=10;" vertex="1" parent="Yb_oia3PvfsGNDMnd8of-85">
          <mxGeometry width="36" height="20" as="geometry" />
        </mxCell>
      </root>
    </mxGraphModel>
  </diagram>
</mxfile>
